
<svg xmlns="http://www.w3.org/2000/svg" version="1.1" xmlns:xlink="http://www.w3.org/1999/xlink" preserveAspectRatio="none" x="0px" y="0px" width="43px" height="68px" viewBox="0 0 43 68">
<defs>
<g id="Layer0_0_FILL">
<path fill="#000000" stroke="none" d="
M 136.15 33.4
L 133.5 31.85 130.25 31.85 128.6 32.8 128.05 31.85 126.4 31.85 126.4 43.5 128.6 43.5 128.6 33.85 133.9 33.85 133.9 43.5 136.15 43.5 136.15 33.4
M 121.75 42.65
L 123.4 43.6 124 43.6 124 33.5 121.35 32 116.05 32 116.05 34 121.75 34 121.75 36.75 117.6 36.75 114.95 38.3 114.95 42.05 117.6 43.6 120.15 43.6 121.75 42.65
M 121.75 38.8
L 121.75 41.6 117.15 41.6 117.15 38.8 121.75 38.8
M 113.65 32.75
L 113.65 32 106.35 32 103.7 33.5 103.7 38.25 105.3 39.2 103.7 40.15 103.7 42.2 105.9 43.5 111.45 43.5 111.45 46.25 105.45 46.25 105.45 43.95 103.25 45.25 103.25 46.7 105.9 48.2 111 48.2 113.65 46.7 113.65 43.05 111 41.5 105.9 41.5 105.9 39.55 110.3 39.55 113 38 113 34.8 111.6 34 113.65 32.75
M 105.9 33.95
L 110.75 33.95 110.75 37.6 105.9 37.6 105.9 33.95
M 94.15 32.8
L 93.6 31.85 91.95 31.85 91.95 43.5 94.15 43.5 94.15 33.85 99.45 33.85 99.45 43.5 101.7 43.5 101.7 33.4 99.05 31.85 95.8 31.85 94.15 32.8
M 89.6 33.5
L 86.95 32 81.65 32 81.65 34 87.35 34 87.35 36.75 83.2 36.75 80.55 38.3 80.55 42.05 83.2 43.6 85.75 43.6 87.35 42.65 89 43.6 89.6 43.6 89.6 33.5
M 82.75 38.8
L 87.35 38.8 87.35 41.6 82.75 41.6 82.75 38.8
M 72.45 48.1
L 74.65 48.1 81 32 78.75 32 75.55 40.2 75.5 40.2 72.25 32 70 32 74.45 42.95 72.45 48.1
M 59.9 33.4
L 59.9 41.95 62.55 43.5 68.95 43.5 68.95 41.5 62.1 41.5 62.1 38.55 68.95 38.55 68.95 33.4 66.3 31.85 62.55 31.85 59.9 33.4
M 62.1 36.5
L 62.1 33.85 66.7 33.85 66.7 36.5 62.1 36.5
M 58.1 37
L 58.1 30.4 55.45 28.85 47.2 28.85 47.2 45 49.5 45 49.5 38.6 52.95 38.6 56.6 45 59.15 45 55.45 38.6 58.1 37
M 55.8 30.95
L 55.8 36.5 49.5 36.5 49.5 30.95 55.8 30.95
M 25.25 43.55
L 42.25 36.3 22.35 40.75 10.6 67.9 25.25 43.55
M 26.8 35.1
L 40.35 0 22 32.9 0 40.7 26.8 35.1 Z"/>
</g>
</defs>

<g transform="matrix( 1, 0, 0, 1, 0,0) ">
<use xlink:href="#Layer0_0_FILL"/>
</g>
</svg>
